<svg aria-hidden="true" style="position: absolute; width: 0; height: 0; overflow: hidden;" version="1.1" xmlns="http://www.w3.org/2000/svg" xmlns:xlink="http://www.w3.org/1999/xlink">
<defs>
<symbol id="icon-css3" viewBox="0 0 32 32">
<path fill="#1172b8" style="fill: var(--color1, #1172b8)" d="M6 28l-2-25h24l-2 25-10 3-10-3z"></path>
<path fill="#3ad" style="fill: var(--color2, #3ad)" d="M26 5h-10v24.5l8-2.5 2-22z"></path>
<path fill="#fff" style="fill: var(--color3, #fff)" d="M19.5 17.5h-10l-0.5-3.5 8-2.5h-8l-0.5-3h15.5l-0.5 3.5-6.5 2.5h6l-1 9.5-6 2-6-2-0.5-5h3l0.5 2.5 3 1 3-1 0.5-4z"></path>
</symbol>
<symbol id="icon-html5" viewBox="0 0 32 32">
<path fill="#e44d26" style="fill: var(--color4, #e44d26)" d="M6 28l-2-25h24l-2 25-10 3-10-3z"></path>
<path fill="#f16529" style="fill: var(--color5, #f16529)" d="M26 5h-10v24.5l8-2.5 2-22z"></path>
<path fill="#fff" style="fill: var(--color3, #fff)" d="M9.5 17.5l-1-9.5h15.5l-0.5 3h-12l0.5 3.5h11l-1 9.5-6 2-6-2-0.5-5h3l0.5 2.5 3 1 3-1 0.5-4h-10z"></path>
</symbol>
<symbol id="icon-javascript" viewBox="0 0 32 32">
<path fill="#f7df1e" style="fill: var(--color6, #f7df1e)" d="M0 0h32v32h-32v-32z"></path>
<path fill="#000" style="fill: var(--color7, #000)" d="M8.414 26.741l2.449-1.482c0.473 0.838 0.902 1.546 1.933 1.546 0.988 0 1.611-0.387 1.611-1.89v-10.225h3.007v10.267c0 3.115-1.826 4.532-4.489 4.532-2.406 0-3.802-1.246-4.511-2.75zM19.048 26.419l2.448-1.418c0.645 1.053 1.482 1.826 2.964 1.826 1.246 0 2.041-0.623 2.041-1.482 0-1.031-0.816-1.396-2.191-1.997l-0.752-0.323c-2.17-0.923-3.609-2.083-3.609-4.532 0-2.256 1.718-3.974 4.404-3.974 1.912 0 3.287 0.666 4.274 2.406l-2.341 1.504c-0.516-0.924-1.074-1.289-1.933-1.289-0.881 0-1.439 0.558-1.439 1.289 0 0.902 0.558 1.268 1.847 1.826l0.752 0.322c2.556 1.096 3.995 2.212 3.995 4.726 0 2.707-2.127 4.189-4.983 4.189-2.792 0-4.597-1.332-5.477-3.072z"></path>
</symbol>
<symbol id="icon-nextjs" viewBox="0 0 32 32">
<path d="M23.749 30.005c-0.119 0.063-0.109 0.083 0.005 0.025 0.037-0.015 0.068-0.036 0.095-0.061 0-0.021 0-0.021-0.1 0.036zM23.989 29.875c-0.057 0.047-0.057 0.047 0.011 0.016 0.036-0.021 0.068-0.041 0.068-0.047 0-0.027-0.016-0.021-0.079 0.031zM24.145 29.781c-0.057 0.047-0.057 0.047 0.011 0.016 0.037-0.021 0.068-0.043 0.068-0.048 0-0.025-0.016-0.020-0.079 0.032zM24.303 29.688c-0.057 0.047-0.057 0.047 0.009 0.015 0.037-0.020 0.068-0.041 0.068-0.047 0-0.025-0.016-0.020-0.077 0.032zM24.516 29.547c-0.109 0.073-0.147 0.12-0.047 0.068 0.067-0.041 0.181-0.131 0.161-0.131-0.043 0.016-0.079 0.043-0.115 0.063zM14.953 0.011c-0.073 0.005-0.292 0.025-0.484 0.041-4.548 0.412-8.803 2.86-11.5 6.631-1.491 2.067-2.459 4.468-2.824 6.989-0.129 0.88-0.145 1.14-0.145 2.333 0 1.192 0.016 1.448 0.145 2.328 0.871 6.011 5.147 11.057 10.943 12.927 1.043 0.333 2.136 0.563 3.381 0.704 0.484 0.052 2.577 0.052 3.061 0 2.152-0.24 3.969-0.771 5.767-1.688 0.276-0.14 0.328-0.177 0.291-0.208-0.88-1.161-1.744-2.323-2.609-3.495l-2.557-3.453-3.203-4.745c-1.068-1.588-2.14-3.172-3.229-4.744-0.011 0-0.025 2.109-0.031 4.681-0.011 4.505-0.011 4.688-0.068 4.792-0.057 0.125-0.151 0.229-0.276 0.287-0.099 0.047-0.188 0.057-0.661 0.057h-0.541l-0.141-0.088c-0.088-0.057-0.161-0.136-0.208-0.229l-0.068-0.141 0.005-6.271 0.011-6.271 0.099-0.125c0.063-0.077 0.141-0.14 0.229-0.187 0.131-0.063 0.183-0.073 0.724-0.073 0.635 0 0.74 0.025 0.907 0.208 1.296 1.932 2.588 3.869 3.859 5.812 2.079 3.152 4.917 7.453 6.312 9.563l2.537 3.839 0.125-0.083c1.219-0.813 2.328-1.781 3.285-2.885 2.016-2.308 3.324-5.147 3.767-8.177 0.129-0.88 0.145-1.141 0.145-2.333s-0.016-1.448-0.145-2.328c-0.871-6.011-5.147-11.057-10.943-12.928-1.084-0.343-2.199-0.577-3.328-0.697-0.303-0.031-2.371-0.068-2.631-0.041zM21.5 9.688c0.151 0.072 0.265 0.208 0.317 0.364 0.027 0.084 0.032 1.823 0.027 5.74l-0.011 5.624-0.989-1.52-0.995-1.521v-4.083c0-2.647 0.011-4.131 0.025-4.204 0.047-0.167 0.161-0.307 0.313-0.395 0.124-0.063 0.172-0.068 0.667-0.068 0.463 0 0.541 0.005 0.645 0.063z"></path>
</symbol>
<symbol id="icon-nodejs" viewBox="0 0 32 32">
<path fill="#8cc84b" style="fill: var(--color8, #8cc84b)" d="M17.172 2.299c-0.339-0.188-0.743-0.299-1.172-0.299s-0.834 0.111-1.185 0.305l0.013-0.006-10.675 5.89c-0.692 0.364-1.16 1.108-1.152 1.881v11.864c-0.005 0.787 0.486 1.538 1.197 1.897 1.022 0.544 2.015 1.143 3.055 1.65 1.203 0.59 2.706 0.721 3.923 0.105 0.988-0.51 1.427-1.646 1.425-2.689 0.008-3.915 0.002-7.83 0.003-11.746 0.024-0.174-0.107-0.36-0.297-0.356-0.454-0.007-0.91-0.004-1.364-0.001-0.172-0.017-0.34 0.126-0.327 0.299-0.006 3.89 0.001 7.781-0.004 11.672-0.001 0.567-0.36 1.049-0.863 1.234l-0.009 0.003c-1.198 0.42-4.617-1.8-4.617-1.8-0.116-0.055-0.194-0.171-0.194-0.305 0-0.009 0-0.017 0.001-0.026l-0 0.001v-11.742c-0.001-0.009-0.001-0.019-0.001-0.029 0-0.151 0.092-0.28 0.224-0.335l0.002-0.001c3.546-1.952 7.090-3.908 10.637-5.862 0.059-0.038 0.131-0.061 0.208-0.061s0.151 0.023 0.211 0.063l-0.001-0.001c3.546 1.953 7.091 3.908 10.638 5.86 0.133 0.057 0.225 0.187 0.225 0.338 0 0.010-0 0.020-0.001 0.030l0-0.001c0 3.913 0.001 7.828-0.001 11.741 0.001 0.009 0.001 0.020 0.001 0.030 0 0.133-0.077 0.248-0.189 0.303l-0.002 0.001c-3.514 1.941-7.067 3.82-10.549 5.818-0.151 0.087-0.323 0.186-0.494 0.090-0.915-0.507-1.82-1.033-2.732-1.544-0.1-0.062-0.226-0.089-0.33-0.020-0.408 0.216-0.793 0.39-1.263 0.577-0.66 0.261-0.554 0.368 0.040 0.714 1.068 0.604 2.137 1.206 3.204 1.81 0.703 0.439 1.646 0.47 2.372 0.065 3.558-1.961 7.116-3.925 10.675-5.886 0.708-0.361 1.202-1.109 1.197-1.896v-11.864c0.007-0.756-0.442-1.487-1.114-1.856-3.57-1.974-7.142-3.942-10.713-5.914z"></path>
<path fill="#8cc84b" style="fill: var(--color8, #8cc84b)" d="M22.542 11.206c-1.397-0.747-3.058-0.787-4.61-0.69-1.122 0.112-2.301 0.421-3.118 1.225-0.838 0.808-1.020 2.113-0.622 3.168 0.285 0.745 1.003 1.23 1.745 1.486 0.957 0.338 1.96 0.442 2.966 0.546 0.916 0.096 1.833 0.19 2.713 0.463 0.36 0.12 0.78 0.302 0.89 0.693 0.101 0.464-0.010 1.003-0.387 1.325-1.195 0.946-4.521 0.801-5.702 0.056-0.478-0.317-0.684-0.879-0.768-1.414-0.009-0.167-0.143-0.32-0.324-0.307-0.202-0.002-0.441-0.003-0.68-0.003s-0.478 0.001-0.716 0.004l0.036-0c-0.159-0.014-0.323 0.099-0.332 0.26-0.093 2.452 2.158 3.52 4.27 3.756 1.208 0.115 2.441 0.108 3.63-0.15 0.893-0.204 1.789-0.579 2.404-1.267 0.758-0.836 0.907-2.081 0.567-3.123-0.26-0.777-1.003-1.276-1.762-1.532-1.033-0.354-2.258-0.545-3.193-0.634-1.36-0.13-2.976-0.076-3.361-0.97-0.153-0.468-0.023-1.049 0.407-1.337 1.138-0.771 3.453-0.669 4.632-0.092 0.54 0.27 0.854 0.827 0.983 1.389 0.024 0.165 0.135 0.337 0.326 0.33 0.45 0.008 0.901 0.002 1.351 0.002 0.155 0.011 0.325-0.076 0.355-0.234-0.020-1.174-0.619-2.376-1.7-2.949z"></path>
</symbol>
<symbol id="icon-react" viewBox="0 0 32 32">
<path fill="#53c1de" style="fill: var(--color9, #53c1de)" d="M18.679 15.976c0-1.435-1.2-2.598-2.679-2.598s-2.679 1.163-2.679 2.598c0 1.434 1.2 2.597 2.679 2.597s2.679-1.163 2.679-2.597z"></path>
<path fill="#53c1de" style="fill: var(--color9, #53c1de)" d="M24.7 11.154c0.566-2.23 1.277-6.363-1.23-7.764-2.495-1.395-5.742 1.278-7.456 2.883-1.71-1.589-5.048-4.25-7.552-2.845-2.494 1.4-1.725 5.465-1.147 7.708-2.327 0.64-6.315 2.020-6.315 4.84 0 2.811 3.984 4.313 6.297 4.953-0.58 2.255-1.311 6.262 1.186 7.659 2.514 1.405 5.842-1.194 7.572-2.816 1.726 1.614 4.942 4.23 7.437 2.83 2.504-1.406 1.852-5.484 1.273-7.74 2.242-0.641 6.235-2.11 6.235-4.886 0-2.793-4.010-4.184-6.3-4.822zM24.416 19.667c-0.488-1.459-1.002-2.677-1.594-3.849l0.075 0.164c0.495-0.989 0.99-2.19 1.402-3.429l0.058-0.202c1.679 0.472 5.361 1.55 5.361 3.625 0 2.094-3.533 3.183-5.302 3.691zM22.85 27.526c-1.862 1.045-4.628-1.456-5.902-2.645 0.872-0.934 1.697-1.944 2.453-3.006l0.061-0.090c1.45-0.125 2.821-0.329 4.064-0.607 0.407 1.595 1.194 5.298-0.676 6.348zM9.124 27.511c-1.863-1.041-1.011-4.616-0.584-6.278 1.228 0.264 2.589 0.453 4.042 0.568 0.83 1.132 1.7 2.173 2.576 3.085-1.083 1.015-4.163 3.671-6.034 2.625zM2.28 15.976c0-2.102 3.661-3.173 5.378-3.643 0.472 1.459 0.967 2.675 1.538 3.846l-0.076-0.173c-0.501 1.012-1.002 2.245-1.42 3.516l-0.060 0.21c-1.637-0.454-5.36-1.653-5.36-3.756zM9.104 4.504c1.87-1.050 4.77 1.506 6.012 2.656-0.888 0.93-1.726 1.93-2.497 2.982l-0.059 0.084c-1.41 0.127-2.761 0.33-4.003 0.604-0.466-1.81-1.321-5.278 0.547-6.326zM20.379 11.577c0.957 0.117 1.875 0.273 2.736 0.464-0.259 0.803-0.581 1.643-0.96 2.504-0.656-1.207-1.244-2.177-1.871-3.12l0.095 0.152zM16.014 8.048c0.591 0.621 1.183 1.314 1.766 2.066-0.529-0.026-1.149-0.040-1.773-0.040s-1.244 0.015-1.86 0.044l0.087-0.003c0.595-0.76 1.177-1.434 1.791-2.077l-0.011 0.011zM9.857 14.544c-0.294-0.641-0.618-1.475-0.9-2.327l-0.054-0.19c0.712-0.164 1.637-0.323 2.576-0.438l0.144-0.014c-0.545 0.808-1.131 1.779-1.671 2.778l-0.095 0.192zM11.65 20.466c-1.081-0.115-2.023-0.267-2.948-0.464l0.184 0.033c0.264-0.83 0.59-1.692 0.972-2.568 0.643 1.2 1.237 2.181 1.874 3.129l-0.082-0.13zM16.050 23.991c-0.611-0.641-1.202-1.323-1.759-2.033l-0.046-0.061c1.188 0.045 2.378 0.045 3.566-0.006-0.59 0.778-1.166 1.462-1.776 2.116l0.015-0.016zM22.167 17.422c0.4 0.886 0.739 1.744 1.007 2.559-0.748 0.174-1.7 0.337-2.667 0.45l-0.131 0.012c0.639-0.982 1.239-1.99 1.79-3.020zM18.747 20.594c-0.84 0.061-1.819 0.095-2.807 0.095-0.934 0-1.862-0.031-2.781-0.092l0.125 0.007c-0.945-1.319-1.857-2.825-2.654-4.399l-0.092-0.199c0.884-1.771 1.791-3.274 2.803-4.698l-0.073 0.108c1.82-0.133 3.65-0.134 5.469 0 0.919 1.301 1.828 2.797 2.636 4.354l0.103 0.218c-0.906 1.79-1.813 3.297-2.813 4.734l0.084-0.128zM22.83 4.467c1.87 1.046 1.038 4.76 0.63 6.376-1.125-0.262-2.494-0.479-3.889-0.606l-0.123-0.009c-0.823-1.139-1.655-2.14-2.548-3.082l0.012 0.013c1.258-1.175 4.066-3.728 5.918-2.692z"></path>
</symbol>
<symbol id="icon-redux" viewBox="0 0 32 32">
<path fill="#764abc" style="fill: var(--color10, #764abc)" d="M21.787 21.556c1.077-0.107 1.91-1.008 1.91-2.104 0-0.026-0-0.051-0.001-0.077l0 0.004c-0.039-1.126-0.993-2.027-2.138-2.027h-0.077c-1.145 0.030-2.062 0.965-2.062 2.114 0 0.022 0 0.044 0.001 0.066l-0-0.003c0.038 0.563 0.267 1.051 0.61 1.389-1.297 2.515-3.283 4.354-6.26 5.893-2.024 1.050-4.123 1.426-6.223 1.163-1.718-0.225-3.054-0.976-3.894-2.214-1.222-1.84-1.336-3.829-0.305-5.818 0.725-1.426 1.87-2.477 2.596-3.003-0.163-0.487-0.334-1.129-0.474-1.783l-0.023-0.131c-5.535 3.941-4.963 9.27-3.283 11.786 1.26 1.876 3.818 3.040 6.643 3.040 0.763 0 1.527-0.075 2.29-0.263 4.887-0.938 8.59-3.79 10.69-8.032zM28.506 16.902c-2.901-3.34-7.177-5.18-12.064-5.18h-0.61c-0.359-0.675-1.058-1.126-1.862-1.126-0.003 0-0.007 0-0.010 0h-0.076c-1.145 0.030-2.062 0.965-2.062 2.114 0 0.022 0 0.044 0.001 0.066l-0-0.003c0.038 1.126 0.992 2.027 2.138 2.027h0.076c0.834-0.038 1.54-0.545 1.865-1.262l0.005-0.014h0.688c2.901 0 5.65 0.825 8.132 2.44 1.908 1.238 3.283 2.852 4.046 4.804 0.65 1.576 0.61 3.115-0.076 4.429-1.070 1.989-2.863 3.077-5.23 3.077-1.527 0-2.978-0.45-3.742-0.788-0.51 0.445-1.070 0.889-1.65 1.305l-0.068 0.046c1.642 0.751 3.322 1.164 4.925 1.164 3.665 0 6.376-1.99 7.406-3.979 1.107-2.177 1.031-5.93-1.832-9.12zM9.112 22.194c0.039 1.126 0.993 2.027 2.138 2.027h0.077c1.145-0.030 2.062-0.965 2.062-2.114 0-0.022-0-0.044-0.001-0.066l0 0.003c-0.038-1.126-0.993-2.027-2.138-2.027h-0.076c-0.076 0-0.191 0-0.267 0.037-1.566-2.552-2.215-5.33-1.985-8.332 0.152-2.252 0.916-4.204 2.252-5.818 1.107-1.388 3.245-2.064 4.696-2.101 4.046-0.076 5.764 4.879 5.879 6.868 0.496 0.113 1.336 0.376 1.909 0.563-0.459-6.080-4.276-9.233-7.941-9.233-3.436 0-6.605 2.44-7.865 6.043-1.756 4.804-0.61 9.42 1.527 13.061-0.19 0.263-0.305 0.676-0.267 1.089z"></path>
</symbol>
<symbol id="icon-sass" viewBox="0 0 32 32">
<path fill="#cd6799" style="fill: var(--color11, #cd6799)" d="M27.535 17.814c-1.113 0.006-2.081 0.274-2.891 0.67-0.297-0.589-0.595-1.113-0.647-1.498-0.058-0.449-0.128-0.723-0.058-1.259s0.385-1.3 0.379-1.358c-0.006-0.058-0.070-0.332-0.711-0.338s-1.195 0.122-1.259 0.291-0.186 0.554-0.268 0.95c-0.111 0.583-1.282 2.664-1.953 3.754-0.216-0.425-0.402-0.799-0.443-1.096-0.058-0.449-0.128-0.723-0.058-1.259s0.385-1.3 0.379-1.358c-0.006-0.058-0.070-0.332-0.711-0.338s-1.195 0.122-1.259 0.291c-0.064 0.169-0.134 0.565-0.268 0.95s-1.69 3.859-2.098 4.756c-0.235 0.524-0.408 0.878-0.589 1.228l0.070-0.15s-0.006 0.017-0.023 0.047c-0.095 0.192-0.154 0.3-0.213 0.408l0.038-0.076v0.006c-0.088 0.157-0.181 0.303-0.227 0.303-0.035 0-0.099-0.42 0.012-0.991 0.233-1.206 0.787-3.083 0.781-3.148 0-0.035 0.105-0.361-0.361-0.53-0.455-0.169-0.618 0.111-0.659 0.111s-0.070 0.099-0.070 0.099 0.507-2.11-0.967-2.11c-0.921 0-2.192 1.008-2.821 1.918-4.733 2.432-5.435 2.821-6.136 3.212l3.991-2.040c-0.344 0.192-0.699 0.385-1.032 0.565-0.023-0.023-0.047-0.052-0.070-0.076-1.784-1.906-5.083-3.253-4.943-5.811 0.053-0.933 0.373-3.381 6.336-6.353 4.908-2.419 8.813-1.749 9.489-0.262 0.968 2.122-2.093 6.062-7.164 6.633-1.935 0.216-2.949-0.53-3.206-0.81-0.268-0.291-0.309-0.309-0.408-0.251-0.163 0.088-0.058 0.35 0 0.501 0.152 0.396 0.775 1.096 1.83 1.44 0.933 0.303 3.2 0.472 5.945-0.589 3.072-1.189 5.473-4.494 4.768-7.263-0.705-2.809-5.368-3.736-9.781-2.168-2.623 0.933-5.467 2.401-7.513 4.313-2.431 2.273-2.815 4.249-2.658 5.077 0.566 2.938 4.617 4.849 6.237 6.266-0.082 0.047-0.157 0.087-0.221 0.122-0.81 0.402-3.9 2.017-4.669 3.724-0.874 1.935 0.14 3.323 0.81 3.509 2.081 0.577 4.22-0.46 5.368-2.174s1.008-3.94 0.478-4.96c-0.006-0.012-0.012-0.023-0.023-0.035 0.21-0.122 0.425-0.251 0.635-0.373 0.237-0.148 0.62-0.367 1.008-0.578l0.163-0.081c-0.198 0.542-0.344 1.189-0.414 2.122-0.088 1.096 0.361 2.518 0.95 3.078 0.262 0.245 0.571 0.251 0.77 0.251 0.688 0 0.997-0.571 1.341-1.247 0.42-0.828 0.799-1.789 0.799-1.789s-0.472 2.6 0.81 2.6c0.466 0 0.938-0.606 1.148-0.915v0.006s0.012-0.017 0.035-0.058c0.047-0.076 0.076-0.122 0.076-0.122v-0.012c0.187-0.326 0.606-1.067 1.23-2.297 0.804-1.585 1.58-3.567 1.58-3.567s0.070 0.484 0.309 1.288c0.14 0.472 0.431 0.991 0.665 1.492-0.186 0.262-0.303 0.408-0.303 0.408l0.006 0.006c-0.152 0.198-0.315 0.414-0.495 0.624-0.635 0.758-1.393 1.626-1.498 1.877-0.122 0.297-0.093 0.513 0.14 0.688 0.169 0.128 0.472 0.146 0.781 0.128 0.571-0.041 0.973-0.181 1.172-0.268 0.309-0.111 0.67-0.28 1.008-0.53 0.624-0.46 1.003-1.119 0.968-1.988-0.017-0.478-0.175-0.956-0.367-1.405 0.058-0.081 0.111-0.163 0.169-0.245 0.985-1.44 1.749-3.019 1.749-3.019s0.070 0.484 0.309 1.288c0.117 0.408 0.356 0.851 0.565 1.282-0.927 0.752-1.498 1.626-1.702 2.197-0.367 1.061-0.082 1.539 0.46 1.649 0.245 0.052 0.595-0.064 0.851-0.175 0.326-0.105 0.711-0.285 1.078-0.554 0.624-0.46 1.224-1.102 1.189-1.97-0.017-0.396-0.122-0.787-0.268-1.166 0.787-0.326 1.801-0.507 3.095-0.355 2.775 0.326 3.322 2.058 3.218 2.786s-0.688 1.125-0.88 1.247c-0.192 0.122-0.256 0.163-0.239 0.251 0.023 0.128 0.116 0.122 0.28 0.099 0.227-0.041 1.457-0.589 1.51-1.929 0.087-1.714-1.545-3.585-4.43-3.567zM6.132 25.030c-0.921 1.003-2.203 1.381-2.757 1.061-0.595-0.344-0.361-1.825 0.769-2.885 0.688-0.647 1.574-1.247 2.162-1.615 0.134-0.082 0.332-0.198 0.571-0.344 0.041-0.023 0.064-0.035 0.064-0.035l0.14-0.087c0.414 1.515 0.018 2.85-0.95 3.905zM12.835 20.472c-0.321 0.781-0.991 2.78-1.399 2.67-0.35-0.093-0.566-1.609-0.070-3.107 0.251-0.752 0.781-1.65 1.090-1.999 0.501-0.56 1.055-0.746 1.189-0.519 0.169 0.297-0.612 2.465-0.81 2.955zM18.366 23.118c-0.134 0.070-0.262 0.117-0.321 0.082-0.041-0.023 0.058-0.117 0.058-0.117s0.694-0.746 0.968-1.084c0.157-0.198 0.344-0.431 0.542-0.694v0.076c0 0.892-0.863 1.492-1.247 1.737zM22.633 22.145c-0.099-0.070-0.082-0.303 0.251-1.032 0.128-0.286 0.431-0.764 0.95-1.224 0.058 0.186 0.099 0.367 0.093 0.536-0.006 1.125-0.81 1.545-1.294 1.72z"></path>
</symbol>
<symbol id="icon-tailwind" viewBox="0 0 32 32">
<path fill="#44a8b3" style="fill: var(--color12, #44a8b3)" d="M9 13.7q1.4-5.6 7-5.6c5.6 0 6.3 4.2 9.1 4.9q2.8 0.7 4.9-2.1-1.4 5.6-7 5.6c-5.6 0-6.3-4.2-9.1-4.9q-2.8-0.7-4.9 2.1zM2 22.1q1.4-5.6 7-5.6c5.6 0 6.3 4.2 9.1 4.9q2.8 0.7 4.9-2.1-1.4 5.6-7 5.6c-5.6 0-6.3-4.2-9.1-4.9q-2.8-0.7-4.9 2.1z"></path>
</symbol>
<symbol id="icon-typescript" viewBox="0 0 32 32">
<path fill="#3178c6" style="fill: var(--color13, #3178c6)" d="M3.312 2h25.376c0.725 0 1.312 0.587 1.312 1.312v25.376c0 0.725-0.587 1.312-1.312 1.312h-25.376c-0.725 0-1.312-0.587-1.312-1.312v-25.376c0-0.725 0.587-1.312 1.312-1.312z"></path>
<path fill="#fff" style="fill: var(--color3, #fff)" d="M18.245 23.759v3.068c0.51 0.258 1.102 0.458 1.725 0.569l0.039 0.006c0.631 0.122 1.357 0.192 2.099 0.192 0.017 0 0.033-0 0.050-0h-0.003c0.014 0 0.031 0 0.047 0 0.723 0 1.427-0.077 2.106-0.223l-0.066 0.012c0.656-0.135 1.238-0.378 1.755-0.712l-0.020 0.012c0.493-0.321 0.891-0.747 1.172-1.248l0.009-0.018c0.274-0.563 0.435-1.224 0.435-1.923 0-0.527-0.091-1.033-0.259-1.502l0.010 0.031c-0.173-0.434-0.416-0.805-0.718-1.118l0.001 0.001c-0.326-0.335-0.695-0.626-1.099-0.864l-0.024-0.013c-0.41-0.246-0.895-0.492-1.398-0.704l-0.079-0.030q-0.6-0.249-1.080-0.484c-0.312-0.151-0.579-0.31-0.829-0.49l0.016 0.011c-0.203-0.143-0.374-0.315-0.512-0.511l-0.004-0.007c-0.113-0.169-0.181-0.378-0.181-0.602 0-0.006 0-0.011 0-0.017v0.001c-0-0.004-0-0.009-0-0.014 0-0.207 0.060-0.399 0.165-0.561l-0.002 0.004c0.119-0.179 0.273-0.325 0.453-0.432l0.006-0.004c0.209-0.125 0.452-0.223 0.71-0.28l0.016-0.003c0.274-0.064 0.59-0.1 0.913-0.1 0.015 0 0.030 0 0.045 0l-0.002-0c0.286 0.001 0.566 0.022 0.84 0.062l-0.032-0.004c0.329 0.045 0.619 0.107 0.9 0.188l-0.044-0.011c0.329 0.092 0.606 0.194 0.874 0.315l-0.038-0.015c0.288 0.13 0.535 0.271 0.766 0.432l-0.015-0.010v-2.863c-0.437-0.172-0.951-0.311-1.483-0.395l-0.042-0.005c-0.538-0.082-1.158-0.13-1.789-0.13-0.039 0-0.078 0-0.117 0.001l0.006-0c-0.014-0-0.031-0-0.047-0-0.715 0-1.411 0.086-2.077 0.247l0.060-0.012c-0.651 0.152-1.225 0.405-1.735 0.745l0.019-0.012c-0.486 0.327-0.881 0.754-1.162 1.253l-0.009 0.018c-0.272 0.505-0.432 1.106-0.432 1.743 0 0.036 0 0.071 0.002 0.107l-0-0.005c-0.001 0.028-0.001 0.061-0.001 0.094 0 0.853 0.298 1.637 0.796 2.253l-0.005-0.007c0.641 0.719 1.444 1.28 2.354 1.625l0.041 0.014q0.63 0.26 1.175 0.509c0.364 0.163 0.673 0.336 0.965 0.532l-0.023-0.015c0.245 0.161 0.452 0.355 0.622 0.579l0.004 0.006c0.144 0.195 0.23 0.441 0.23 0.707 0 0.004-0 0.009-0 0.013v-0.001c0 0.002 0 0.005 0 0.008 0 0.2-0.053 0.388-0.147 0.549l0.003-0.005c-0.108 0.182-0.255 0.33-0.43 0.438l-0.006 0.003c-0.209 0.129-0.451 0.23-0.71 0.289l-0.016 0.003c-0.287 0.067-0.616 0.105-0.955 0.105-0.022 0-0.044-0-0.066-0l0.003 0c-0.707-0.001-1.384-0.13-2.009-0.363l0.040 0.013c-0.694-0.254-1.293-0.609-1.813-1.052l0.008 0.007zM13.091 16.121h4v-2.527h-11.153v2.527h3.982v11.254h3.171z"></path>
</symbol>
</defs>
</svg>
